<mxfile host="app.diagrams.net" modified="2024-03-26T19:57:27.214Z" agent="Mozilla/5.0 (Windows NT 10.0; Win64; x64) AppleWebKit/537.36 (KHTML, like Gecko) Chrome/121.0.0.0 Safari/537.36" etag="xAi4CP3T3yeq0zhjklHu" version="24.2.0" type="device">
  <diagram name="Page-1" id="3AYKA9QVEAdV145p8R4H">
    <mxGraphModel dx="463" dy="287" grid="1" gridSize="10" guides="1" tooltips="1" connect="1" arrows="1" fold="1" page="1" pageScale="1" pageWidth="850" pageHeight="1100" math="0" shadow="0">
      <root>
        <mxCell id="0" />
        <mxCell id="1" parent="0" />
        <mxCell id="TqLUojS1CVR_VBdu6LNA-1" value="ADMIN" style="whiteSpace=wrap;html=1;align=center;" parent="1" vertex="1">
          <mxGeometry x="455" y="473" width="100" height="40" as="geometry" />
        </mxCell>
        <mxCell id="TqLUojS1CVR_VBdu6LNA-4" value="" style="endArrow=oval;html=1;rounded=0;endFill=1;" parent="1" edge="1">
          <mxGeometry width="50" height="50" relative="1" as="geometry">
            <mxPoint x="460" y="513" as="sourcePoint" />
            <mxPoint x="460" y="523" as="targetPoint" />
          </mxGeometry>
        </mxCell>
        <mxCell id="TqLUojS1CVR_VBdu6LNA-5" value="name" style="text;html=1;align=center;verticalAlign=middle;whiteSpace=wrap;rounded=0;fontSize=7;" parent="1" vertex="1">
          <mxGeometry x="450" y="527" width="20" height="10" as="geometry" />
        </mxCell>
        <mxCell id="TqLUojS1CVR_VBdu6LNA-11" value="" style="endArrow=oval;html=1;rounded=0;endFill=0;" parent="1" edge="1">
          <mxGeometry width="50" height="50" relative="1" as="geometry">
            <mxPoint x="490" y="513" as="sourcePoint" />
            <mxPoint x="490" y="523" as="targetPoint" />
          </mxGeometry>
        </mxCell>
        <mxCell id="TqLUojS1CVR_VBdu6LNA-12" value="password" style="text;html=1;align=center;verticalAlign=middle;whiteSpace=wrap;rounded=0;fontSize=7;" parent="1" vertex="1">
          <mxGeometry x="480" y="523" width="20" height="13" as="geometry" />
        </mxCell>
        <mxCell id="TqLUojS1CVR_VBdu6LNA-13" value="" style="endArrow=oval;html=1;rounded=0;endFill=0;" parent="1" edge="1">
          <mxGeometry width="50" height="50" relative="1" as="geometry">
            <mxPoint x="525" y="514" as="sourcePoint" />
            <mxPoint x="525" y="524" as="targetPoint" />
          </mxGeometry>
        </mxCell>
        <mxCell id="TqLUojS1CVR_VBdu6LNA-14" value="last_log" style="text;html=1;align=center;verticalAlign=middle;whiteSpace=wrap;rounded=0;fontSize=7;" parent="1" vertex="1">
          <mxGeometry x="515" y="527" width="20" height="10" as="geometry" />
        </mxCell>
        <mxCell id="TqLUojS1CVR_VBdu6LNA-15" value="" style="endArrow=oval;html=1;rounded=0;endFill=0;" parent="1" edge="1">
          <mxGeometry width="50" height="50" relative="1" as="geometry">
            <mxPoint x="555" y="503" as="sourcePoint" />
            <mxPoint x="565" y="503" as="targetPoint" />
          </mxGeometry>
        </mxCell>
        <mxCell id="TqLUojS1CVR_VBdu6LNA-16" value="browser_info" style="text;html=1;align=center;verticalAlign=middle;whiteSpace=wrap;rounded=0;fontSize=7;" parent="1" vertex="1">
          <mxGeometry x="580" y="499" width="20" height="10" as="geometry" />
        </mxCell>
        <mxCell id="TqLUojS1CVR_VBdu6LNA-17" value="" style="endArrow=oval;html=1;rounded=0;endFill=0;" parent="1" edge="1">
          <mxGeometry width="50" height="50" relative="1" as="geometry">
            <mxPoint x="555" y="477" as="sourcePoint" />
            <mxPoint x="565" y="477" as="targetPoint" />
          </mxGeometry>
        </mxCell>
        <mxCell id="TqLUojS1CVR_VBdu6LNA-18" value="IP" style="text;html=1;align=center;verticalAlign=middle;whiteSpace=wrap;rounded=0;fontSize=7;" parent="1" vertex="1">
          <mxGeometry x="564" y="473" width="20" height="10" as="geometry" />
        </mxCell>
        <mxCell id="TqLUojS1CVR_VBdu6LNA-127" style="edgeStyle=orthogonalEdgeStyle;rounded=0;orthogonalLoop=1;jettySize=auto;html=1;exitX=0;exitY=0.75;exitDx=0;exitDy=0;endArrow=none;endFill=0;" parent="1" source="TqLUojS1CVR_VBdu6LNA-20" target="TqLUojS1CVR_VBdu6LNA-128" edge="1">
          <mxGeometry relative="1" as="geometry">
            <mxPoint x="600" y="400" as="targetPoint" />
          </mxGeometry>
        </mxCell>
        <mxCell id="TqLUojS1CVR_VBdu6LNA-129" style="edgeStyle=orthogonalEdgeStyle;rounded=0;orthogonalLoop=1;jettySize=auto;html=1;exitX=1;exitY=0.75;exitDx=0;exitDy=0;endArrow=none;endFill=0;" parent="1" source="TqLUojS1CVR_VBdu6LNA-20" target="TqLUojS1CVR_VBdu6LNA-130" edge="1">
          <mxGeometry relative="1" as="geometry">
            <mxPoint x="820" y="400" as="targetPoint" />
          </mxGeometry>
        </mxCell>
        <mxCell id="TqLUojS1CVR_VBdu6LNA-20" value="UTENTE" style="whiteSpace=wrap;html=1;align=center;" parent="1" vertex="1">
          <mxGeometry x="650" y="316" width="100" height="40" as="geometry" />
        </mxCell>
        <mxCell id="TqLUojS1CVR_VBdu6LNA-21" value="" style="endArrow=oval;html=1;rounded=0;endFill=1;" parent="1" edge="1">
          <mxGeometry width="50" height="50" relative="1" as="geometry">
            <mxPoint x="655" y="356" as="sourcePoint" />
            <mxPoint x="655" y="366" as="targetPoint" />
          </mxGeometry>
        </mxCell>
        <mxCell id="TqLUojS1CVR_VBdu6LNA-22" value="" style="endArrow=oval;html=1;rounded=0;endFill=0;" parent="1" edge="1">
          <mxGeometry width="50" height="50" relative="1" as="geometry">
            <mxPoint x="685" y="356" as="sourcePoint" />
            <mxPoint x="685" y="366" as="targetPoint" />
          </mxGeometry>
        </mxCell>
        <mxCell id="TqLUojS1CVR_VBdu6LNA-23" value="" style="endArrow=oval;html=1;rounded=0;endFill=0;" parent="1" edge="1">
          <mxGeometry width="50" height="50" relative="1" as="geometry">
            <mxPoint x="720" y="357" as="sourcePoint" />
            <mxPoint x="720" y="367" as="targetPoint" />
          </mxGeometry>
        </mxCell>
        <mxCell id="TqLUojS1CVR_VBdu6LNA-24" value="" style="endArrow=oval;html=1;rounded=0;endFill=0;" parent="1" edge="1">
          <mxGeometry width="50" height="50" relative="1" as="geometry">
            <mxPoint x="750" y="335.5" as="sourcePoint" />
            <mxPoint x="760" y="335.5" as="targetPoint" />
          </mxGeometry>
        </mxCell>
        <mxCell id="TqLUojS1CVR_VBdu6LNA-25" value="address" style="text;html=1;align=center;verticalAlign=middle;whiteSpace=wrap;rounded=0;fontSize=7;" parent="1" vertex="1">
          <mxGeometry x="766" y="331.5" width="20" height="10" as="geometry" />
        </mxCell>
        <mxCell id="TqLUojS1CVR_VBdu6LNA-26" value="" style="endArrow=oval;html=1;rounded=0;endFill=0;" parent="1" edge="1">
          <mxGeometry width="50" height="50" relative="1" as="geometry">
            <mxPoint x="750" y="350" as="sourcePoint" />
            <mxPoint x="760" y="350" as="targetPoint" />
          </mxGeometry>
        </mxCell>
        <mxCell id="TqLUojS1CVR_VBdu6LNA-27" value="ID" style="text;html=1;align=center;verticalAlign=middle;whiteSpace=wrap;rounded=0;fontSize=7;" parent="1" vertex="1">
          <mxGeometry x="645" y="369" width="20" height="10" as="geometry" />
        </mxCell>
        <mxCell id="TqLUojS1CVR_VBdu6LNA-28" value="fname" style="text;html=1;align=center;verticalAlign=middle;whiteSpace=wrap;rounded=0;fontSize=7;" parent="1" vertex="1">
          <mxGeometry x="675" y="369" width="20" height="10" as="geometry" />
        </mxCell>
        <mxCell id="TqLUojS1CVR_VBdu6LNA-29" value="lname" style="text;html=1;align=center;verticalAlign=middle;whiteSpace=wrap;rounded=0;fontSize=7;" parent="1" vertex="1">
          <mxGeometry x="710" y="369" width="20" height="10" as="geometry" />
        </mxCell>
        <mxCell id="TqLUojS1CVR_VBdu6LNA-30" value="" style="endArrow=oval;html=1;rounded=0;endFill=0;" parent="1" edge="1">
          <mxGeometry width="50" height="50" relative="1" as="geometry">
            <mxPoint x="745" y="357" as="sourcePoint" />
            <mxPoint x="745" y="367" as="targetPoint" />
          </mxGeometry>
        </mxCell>
        <mxCell id="TqLUojS1CVR_VBdu6LNA-31" value="DDN" style="text;html=1;align=center;verticalAlign=middle;whiteSpace=wrap;rounded=0;fontSize=7;" parent="1" vertex="1">
          <mxGeometry x="738" y="370" width="15" height="9" as="geometry" />
        </mxCell>
        <mxCell id="TqLUojS1CVR_VBdu6LNA-32" value="CF" style="text;html=1;align=center;verticalAlign=middle;whiteSpace=wrap;rounded=0;fontSize=7;" parent="1" vertex="1">
          <mxGeometry x="764" y="346" width="15" height="9" as="geometry" />
        </mxCell>
        <mxCell id="TqLUojS1CVR_VBdu6LNA-33" value="" style="endArrow=oval;html=1;rounded=0;endFill=0;" parent="1" edge="1">
          <mxGeometry width="50" height="50" relative="1" as="geometry">
            <mxPoint x="750" y="324" as="sourcePoint" />
            <mxPoint x="760" y="324" as="targetPoint" />
          </mxGeometry>
        </mxCell>
        <mxCell id="TqLUojS1CVR_VBdu6LNA-34" value="email" style="text;html=1;align=center;verticalAlign=middle;whiteSpace=wrap;rounded=0;fontSize=7;" parent="1" vertex="1">
          <mxGeometry x="766" y="320" width="20" height="10" as="geometry" />
        </mxCell>
        <mxCell id="TqLUojS1CVR_VBdu6LNA-36" value="phone" style="text;html=1;align=center;verticalAlign=middle;whiteSpace=wrap;rounded=0;fontSize=7;" parent="1" vertex="1">
          <mxGeometry x="735" y="294" width="20" height="10" as="geometry" />
        </mxCell>
        <mxCell id="TqLUojS1CVR_VBdu6LNA-37" value="" style="endArrow=oval;html=1;rounded=0;endFill=0;" parent="1" edge="1">
          <mxGeometry width="50" height="50" relative="1" as="geometry">
            <mxPoint x="744" y="316" as="sourcePoint" />
            <mxPoint x="744" y="306" as="targetPoint" />
          </mxGeometry>
        </mxCell>
        <mxCell id="TqLUojS1CVR_VBdu6LNA-38" value="last_log" style="text;html=1;align=center;verticalAlign=middle;whiteSpace=wrap;rounded=0;fontSize=7;" parent="1" vertex="1">
          <mxGeometry x="710" y="294" width="20" height="10" as="geometry" />
        </mxCell>
        <mxCell id="TqLUojS1CVR_VBdu6LNA-39" value="" style="endArrow=oval;html=1;rounded=0;endFill=0;" parent="1" edge="1">
          <mxGeometry width="50" height="50" relative="1" as="geometry">
            <mxPoint x="719" y="316" as="sourcePoint" />
            <mxPoint x="719" y="306" as="targetPoint" />
          </mxGeometry>
        </mxCell>
        <mxCell id="TqLUojS1CVR_VBdu6LNA-40" value="browser _info" style="text;html=1;align=center;verticalAlign=middle;whiteSpace=wrap;rounded=0;fontSize=7;" parent="1" vertex="1">
          <mxGeometry x="680" y="290" width="25" height="14" as="geometry" />
        </mxCell>
        <mxCell id="TqLUojS1CVR_VBdu6LNA-41" value="" style="endArrow=oval;html=1;rounded=0;endFill=0;" parent="1" edge="1">
          <mxGeometry width="50" height="50" relative="1" as="geometry">
            <mxPoint x="694" y="316" as="sourcePoint" />
            <mxPoint x="694" y="306" as="targetPoint" />
          </mxGeometry>
        </mxCell>
        <mxCell id="TqLUojS1CVR_VBdu6LNA-42" value="IP" style="text;html=1;align=center;verticalAlign=middle;whiteSpace=wrap;rounded=0;fontSize=7;" parent="1" vertex="1">
          <mxGeometry x="655" y="294" width="20" height="10" as="geometry" />
        </mxCell>
        <mxCell id="TqLUojS1CVR_VBdu6LNA-43" value="" style="endArrow=oval;html=1;rounded=0;endFill=0;" parent="1" edge="1">
          <mxGeometry width="50" height="50" relative="1" as="geometry">
            <mxPoint x="664" y="316" as="sourcePoint" />
            <mxPoint x="664" y="306" as="targetPoint" />
          </mxGeometry>
        </mxCell>
        <mxCell id="TqLUojS1CVR_VBdu6LNA-48" value="" style="endArrow=oval;html=1;rounded=0;endFill=0;entryX=-0.122;entryY=1.023;entryDx=0;entryDy=0;entryPerimeter=0;" parent="1" target="TqLUojS1CVR_VBdu6LNA-140" edge="1">
          <mxGeometry width="50" height="50" relative="1" as="geometry">
            <mxPoint x="845" y="409" as="sourcePoint" />
            <mxPoint x="855" y="393.91" as="targetPoint" />
          </mxGeometry>
        </mxCell>
        <mxCell id="TqLUojS1CVR_VBdu6LNA-50" value="" style="endArrow=oval;html=1;rounded=0;endFill=0;" parent="1" edge="1">
          <mxGeometry width="50" height="50" relative="1" as="geometry">
            <mxPoint x="650" y="334.19000000000005" as="sourcePoint" />
            <mxPoint x="640" y="334" as="targetPoint" />
          </mxGeometry>
        </mxCell>
        <mxCell id="TqLUojS1CVR_VBdu6LNA-51" value="newsletter" style="text;html=1;align=center;verticalAlign=middle;whiteSpace=wrap;rounded=0;fontSize=7;" parent="1" vertex="1">
          <mxGeometry x="610" y="330" width="20" height="10" as="geometry" />
        </mxCell>
        <mxCell id="TqLUojS1CVR_VBdu6LNA-123" style="edgeStyle=orthogonalEdgeStyle;rounded=0;orthogonalLoop=1;jettySize=auto;html=1;exitX=1;exitY=0.5;exitDx=0;exitDy=0;endArrow=none;endFill=0;entryX=0.555;entryY=-0.1;entryDx=0;entryDy=0;entryPerimeter=0;" parent="1" source="TqLUojS1CVR_VBdu6LNA-52" target="TqLUojS1CVR_VBdu6LNA-107" edge="1">
          <mxGeometry relative="1" as="geometry">
            <mxPoint x="850.5" y="545" as="targetPoint" />
          </mxGeometry>
        </mxCell>
        <mxCell id="TqLUojS1CVR_VBdu6LNA-52" value="PRODOTTO" style="whiteSpace=wrap;html=1;align=center;" parent="1" vertex="1">
          <mxGeometry x="635.5" y="525" width="100" height="40" as="geometry" />
        </mxCell>
        <mxCell id="TqLUojS1CVR_VBdu6LNA-53" value="" style="endArrow=oval;html=1;rounded=0;endFill=1;" parent="1" edge="1">
          <mxGeometry width="50" height="50" relative="1" as="geometry">
            <mxPoint x="640.5" y="525" as="sourcePoint" />
            <mxPoint x="640.5" y="515" as="targetPoint" />
          </mxGeometry>
        </mxCell>
        <mxCell id="TqLUojS1CVR_VBdu6LNA-54" value="ID" style="text;html=1;align=center;verticalAlign=middle;whiteSpace=wrap;rounded=0;fontSize=7;" parent="1" vertex="1">
          <mxGeometry x="630.5" y="501" width="20" height="10" as="geometry" />
        </mxCell>
        <mxCell id="TqLUojS1CVR_VBdu6LNA-57" value="nome" style="text;html=1;align=center;verticalAlign=middle;whiteSpace=wrap;rounded=0;fontSize=7;" parent="1" vertex="1">
          <mxGeometry x="675.5" y="503" width="20" height="10" as="geometry" />
        </mxCell>
        <mxCell id="TqLUojS1CVR_VBdu6LNA-58" value="" style="endArrow=oval;html=1;rounded=0;endFill=0;" parent="1" edge="1">
          <mxGeometry width="50" height="50" relative="1" as="geometry">
            <mxPoint x="684.5" y="525" as="sourcePoint" />
            <mxPoint x="684.5" y="515" as="targetPoint" />
          </mxGeometry>
        </mxCell>
        <mxCell id="TqLUojS1CVR_VBdu6LNA-59" value="desc" style="text;html=1;align=center;verticalAlign=middle;whiteSpace=wrap;rounded=0;fontSize=7;" parent="1" vertex="1">
          <mxGeometry x="695.5" y="503" width="20" height="10" as="geometry" />
        </mxCell>
        <mxCell id="TqLUojS1CVR_VBdu6LNA-60" value="" style="endArrow=oval;html=1;rounded=0;endFill=0;" parent="1" edge="1">
          <mxGeometry width="50" height="50" relative="1" as="geometry">
            <mxPoint x="704.5" y="525" as="sourcePoint" />
            <mxPoint x="704.5" y="515" as="targetPoint" />
          </mxGeometry>
        </mxCell>
        <mxCell id="TqLUojS1CVR_VBdu6LNA-116" style="edgeStyle=orthogonalEdgeStyle;rounded=0;orthogonalLoop=1;jettySize=auto;html=1;exitX=0.5;exitY=1;exitDx=0;exitDy=0;" parent="1" source="TqLUojS1CVR_VBdu6LNA-61" edge="1">
          <mxGeometry relative="1" as="geometry">
            <mxPoint x="620.5" y="615" as="targetPoint" />
          </mxGeometry>
        </mxCell>
        <mxCell id="TqLUojS1CVR_VBdu6LNA-119" style="edgeStyle=orthogonalEdgeStyle;rounded=0;orthogonalLoop=1;jettySize=auto;html=1;exitX=0.5;exitY=1;exitDx=0;exitDy=0;entryX=0.5;entryY=0;entryDx=0;entryDy=0;endArrow=none;endFill=0;" parent="1" source="TqLUojS1CVR_VBdu6LNA-61" target="TqLUojS1CVR_VBdu6LNA-118" edge="1">
          <mxGeometry relative="1" as="geometry" />
        </mxCell>
        <mxCell id="TqLUojS1CVR_VBdu6LNA-61" value="OLIO" style="whiteSpace=wrap;html=1;align=center;" parent="1" vertex="1">
          <mxGeometry x="570.5" y="585" width="100" height="40" as="geometry" />
        </mxCell>
        <mxCell id="TqLUojS1CVR_VBdu6LNA-62" value="COSMETICO" style="whiteSpace=wrap;html=1;align=center;" parent="1" vertex="1">
          <mxGeometry x="700.5" y="585" width="100" height="40" as="geometry" />
        </mxCell>
        <mxCell id="TqLUojS1CVR_VBdu6LNA-63" value="" style="endArrow=none;html=1;rounded=0;" parent="1" edge="1">
          <mxGeometry width="50" height="50" relative="1" as="geometry">
            <mxPoint x="630.5" y="585" as="sourcePoint" />
            <mxPoint x="630.5" y="575" as="targetPoint" />
          </mxGeometry>
        </mxCell>
        <mxCell id="TqLUojS1CVR_VBdu6LNA-64" value="" style="endArrow=none;html=1;rounded=0;" parent="1" edge="1">
          <mxGeometry width="50" height="50" relative="1" as="geometry">
            <mxPoint x="740.41" y="585" as="sourcePoint" />
            <mxPoint x="740.41" y="575" as="targetPoint" />
          </mxGeometry>
        </mxCell>
        <mxCell id="TqLUojS1CVR_VBdu6LNA-65" value="" style="endArrow=none;html=1;rounded=0;" parent="1" edge="1">
          <mxGeometry width="50" height="50" relative="1" as="geometry">
            <mxPoint x="630.5" y="575" as="sourcePoint" />
            <mxPoint x="740.5" y="575" as="targetPoint" />
          </mxGeometry>
        </mxCell>
        <mxCell id="TqLUojS1CVR_VBdu6LNA-66" value="" style="endArrow=none;html=1;rounded=0;" parent="1" edge="1">
          <mxGeometry width="50" height="50" relative="1" as="geometry">
            <mxPoint x="685.41" y="575" as="sourcePoint" />
            <mxPoint x="685.41" y="565" as="targetPoint" />
          </mxGeometry>
        </mxCell>
        <mxCell id="TqLUojS1CVR_VBdu6LNA-69" value="" style="endArrow=oval;html=1;rounded=0;endFill=0;" parent="1" edge="1">
          <mxGeometry width="50" height="50" relative="1" as="geometry">
            <mxPoint x="595.5" y="625" as="sourcePoint" />
            <mxPoint x="595.5" y="635" as="targetPoint" />
          </mxGeometry>
        </mxCell>
        <mxCell id="TqLUojS1CVR_VBdu6LNA-70" value="gusto" style="text;html=1;align=center;verticalAlign=middle;whiteSpace=wrap;rounded=0;fontSize=7;" parent="1" vertex="1">
          <mxGeometry x="585.5" y="635" width="20" height="13" as="geometry" />
        </mxCell>
        <mxCell id="TqLUojS1CVR_VBdu6LNA-71" value="" style="endArrow=oval;html=1;rounded=0;endFill=0;" parent="1" edge="1">
          <mxGeometry width="50" height="50" relative="1" as="geometry">
            <mxPoint x="615.5" y="625" as="sourcePoint" />
            <mxPoint x="615.5" y="635" as="targetPoint" />
          </mxGeometry>
        </mxCell>
        <mxCell id="TqLUojS1CVR_VBdu6LNA-72" value="tipo" style="text;html=1;align=center;verticalAlign=middle;whiteSpace=wrap;rounded=0;fontSize=7;" parent="1" vertex="1">
          <mxGeometry x="605.5" y="635" width="20" height="13" as="geometry" />
        </mxCell>
        <mxCell id="TqLUojS1CVR_VBdu6LNA-73" value="" style="endArrow=oval;html=1;rounded=0;endFill=0;" parent="1" edge="1">
          <mxGeometry width="50" height="50" relative="1" as="geometry">
            <mxPoint x="630.5" y="625" as="sourcePoint" />
            <mxPoint x="630.5" y="635" as="targetPoint" />
          </mxGeometry>
        </mxCell>
        <mxCell id="TqLUojS1CVR_VBdu6LNA-74" value="litri" style="text;html=1;align=center;verticalAlign=middle;whiteSpace=wrap;rounded=0;fontSize=7;" parent="1" vertex="1">
          <mxGeometry x="620.5" y="635" width="20" height="13" as="geometry" />
        </mxCell>
        <mxCell id="TqLUojS1CVR_VBdu6LNA-75" value="" style="endArrow=oval;html=1;rounded=0;endFill=0;" parent="1" edge="1">
          <mxGeometry width="50" height="50" relative="1" as="geometry">
            <mxPoint x="650.5" y="625" as="sourcePoint" />
            <mxPoint x="650.5" y="635" as="targetPoint" />
          </mxGeometry>
        </mxCell>
        <mxCell id="TqLUojS1CVR_VBdu6LNA-76" value="annata" style="text;html=1;align=center;verticalAlign=middle;whiteSpace=wrap;rounded=0;fontSize=7;" parent="1" vertex="1">
          <mxGeometry x="640.5" y="635" width="20" height="13" as="geometry" />
        </mxCell>
        <mxCell id="TqLUojS1CVR_VBdu6LNA-77" value="prezzo" style="text;html=1;align=center;verticalAlign=middle;whiteSpace=wrap;rounded=0;fontSize=7;" parent="1" vertex="1">
          <mxGeometry x="715.5" y="503" width="20" height="10" as="geometry" />
        </mxCell>
        <mxCell id="TqLUojS1CVR_VBdu6LNA-78" value="" style="endArrow=oval;html=1;rounded=0;endFill=0;" parent="1" edge="1">
          <mxGeometry width="50" height="50" relative="1" as="geometry">
            <mxPoint x="724.5" y="525" as="sourcePoint" />
            <mxPoint x="724.5" y="515" as="targetPoint" />
          </mxGeometry>
        </mxCell>
        <mxCell id="TqLUojS1CVR_VBdu6LNA-79" value="" style="endArrow=oval;html=1;rounded=0;endFill=0;" parent="1" edge="1">
          <mxGeometry width="50" height="50" relative="1" as="geometry">
            <mxPoint x="705.5" y="625" as="sourcePoint" />
            <mxPoint x="705.5" y="635" as="targetPoint" />
          </mxGeometry>
        </mxCell>
        <mxCell id="TqLUojS1CVR_VBdu6LNA-80" value="consistenza" style="text;html=1;align=center;verticalAlign=middle;whiteSpace=wrap;rounded=0;fontSize=7;" parent="1" vertex="1">
          <mxGeometry x="695.5" y="635" width="20" height="13" as="geometry" />
        </mxCell>
        <mxCell id="TqLUojS1CVR_VBdu6LNA-81" value="" style="endArrow=oval;html=1;rounded=0;endFill=0;" parent="1" edge="1">
          <mxGeometry width="50" height="50" relative="1" as="geometry">
            <mxPoint x="735.5" y="625" as="sourcePoint" />
            <mxPoint x="735.5" y="635" as="targetPoint" />
          </mxGeometry>
        </mxCell>
        <mxCell id="TqLUojS1CVR_VBdu6LNA-82" value="scopo" style="text;html=1;align=center;verticalAlign=middle;whiteSpace=wrap;rounded=0;fontSize=7;" parent="1" vertex="1">
          <mxGeometry x="725.5" y="635" width="20" height="13" as="geometry" />
        </mxCell>
        <mxCell id="TqLUojS1CVR_VBdu6LNA-83" value="" style="endArrow=oval;html=1;rounded=0;endFill=0;" parent="1" edge="1">
          <mxGeometry width="50" height="50" relative="1" as="geometry">
            <mxPoint x="760.5" y="625" as="sourcePoint" />
            <mxPoint x="760.5" y="635" as="targetPoint" />
          </mxGeometry>
        </mxCell>
        <mxCell id="TqLUojS1CVR_VBdu6LNA-84" value="size" style="text;html=1;align=center;verticalAlign=middle;whiteSpace=wrap;rounded=0;fontSize=7;" parent="1" vertex="1">
          <mxGeometry x="750.5" y="635" width="20" height="13" as="geometry" />
        </mxCell>
        <mxCell id="TqLUojS1CVR_VBdu6LNA-85" value="" style="endArrow=oval;html=1;rounded=0;endFill=0;" parent="1" edge="1">
          <mxGeometry width="50" height="50" relative="1" as="geometry">
            <mxPoint x="789.5" y="625" as="sourcePoint" />
            <mxPoint x="789.5" y="635" as="targetPoint" />
          </mxGeometry>
        </mxCell>
        <mxCell id="TqLUojS1CVR_VBdu6LNA-86" value="ingredienti" style="text;html=1;align=center;verticalAlign=middle;whiteSpace=wrap;rounded=0;fontSize=7;" parent="1" vertex="1">
          <mxGeometry x="779.5" y="635" width="20" height="13" as="geometry" />
        </mxCell>
        <mxCell id="TqLUojS1CVR_VBdu6LNA-122" style="edgeStyle=orthogonalEdgeStyle;rounded=0;orthogonalLoop=1;jettySize=auto;html=1;exitX=1;exitY=0.5;exitDx=0;exitDy=0;entryX=0;entryY=0.5;entryDx=0;entryDy=0;endArrow=none;endFill=0;" parent="1" source="TqLUojS1CVR_VBdu6LNA-156" target="TqLUojS1CVR_VBdu6LNA-107" edge="1">
          <mxGeometry relative="1" as="geometry" />
        </mxCell>
        <mxCell id="TqLUojS1CVR_VBdu6LNA-88" value="RICETTA" style="whiteSpace=wrap;html=1;align=center;" parent="1" vertex="1">
          <mxGeometry x="570.5" y="725" width="100" height="40" as="geometry" />
        </mxCell>
        <mxCell id="TqLUojS1CVR_VBdu6LNA-91" value="ID" style="text;html=1;align=center;verticalAlign=middle;whiteSpace=wrap;rounded=0;fontSize=7;" parent="1" vertex="1">
          <mxGeometry x="565" y="778" width="20" height="10" as="geometry" />
        </mxCell>
        <mxCell id="TqLUojS1CVR_VBdu6LNA-92" value="regione" style="text;html=1;align=center;verticalAlign=middle;whiteSpace=wrap;rounded=0;fontSize=7;" parent="1" vertex="1">
          <mxGeometry x="585" y="780" width="20" height="10" as="geometry" />
        </mxCell>
        <mxCell id="TqLUojS1CVR_VBdu6LNA-95" value="text" style="text;html=1;align=center;verticalAlign=middle;whiteSpace=wrap;rounded=0;fontSize=7;" parent="1" vertex="1">
          <mxGeometry x="608" y="779" width="20" height="10" as="geometry" />
        </mxCell>
        <mxCell id="TqLUojS1CVR_VBdu6LNA-97" value="title" style="text;html=1;align=center;verticalAlign=middle;whiteSpace=wrap;rounded=0;fontSize=7;" parent="1" vertex="1">
          <mxGeometry x="635.5" y="779" width="20" height="10" as="geometry" />
        </mxCell>
        <mxCell id="TqLUojS1CVR_VBdu6LNA-99" value="" style="endArrow=oval;html=1;rounded=0;endFill=1;" parent="1" edge="1">
          <mxGeometry width="50" height="50" relative="1" as="geometry">
            <mxPoint x="575.5" y="765" as="sourcePoint" />
            <mxPoint x="575.5" y="775" as="targetPoint" />
          </mxGeometry>
        </mxCell>
        <mxCell id="TqLUojS1CVR_VBdu6LNA-101" value="" style="endArrow=oval;html=1;rounded=0;endFill=0;" parent="1" edge="1">
          <mxGeometry width="50" height="50" relative="1" as="geometry">
            <mxPoint x="595.5" y="765" as="sourcePoint" />
            <mxPoint x="595.5" y="775" as="targetPoint" />
          </mxGeometry>
        </mxCell>
        <mxCell id="TqLUojS1CVR_VBdu6LNA-103" value="" style="endArrow=oval;html=1;rounded=0;endFill=0;" parent="1" edge="1">
          <mxGeometry width="50" height="50" relative="1" as="geometry">
            <mxPoint x="617.5" y="765" as="sourcePoint" />
            <mxPoint x="617.5" y="775" as="targetPoint" />
          </mxGeometry>
        </mxCell>
        <mxCell id="TqLUojS1CVR_VBdu6LNA-105" value="" style="endArrow=oval;html=1;rounded=0;endFill=0;" parent="1" edge="1">
          <mxGeometry width="50" height="50" relative="1" as="geometry">
            <mxPoint x="644.5" y="765" as="sourcePoint" />
            <mxPoint x="644.5" y="775" as="targetPoint" />
          </mxGeometry>
        </mxCell>
        <mxCell id="TqLUojS1CVR_VBdu6LNA-107" value="IMAGES" style="whiteSpace=wrap;html=1;align=center;" parent="1" vertex="1">
          <mxGeometry x="775" y="725" width="100" height="40" as="geometry" />
        </mxCell>
        <mxCell id="TqLUojS1CVR_VBdu6LNA-108" value="name" style="text;html=1;align=center;verticalAlign=middle;whiteSpace=wrap;rounded=0;fontSize=7;" parent="1" vertex="1">
          <mxGeometry x="790.5" y="780" width="20" height="10" as="geometry" />
        </mxCell>
        <mxCell id="TqLUojS1CVR_VBdu6LNA-109" value="alt" style="text;html=1;align=center;verticalAlign=middle;whiteSpace=wrap;rounded=0;fontSize=7;" parent="1" vertex="1">
          <mxGeometry x="813.5" y="779" width="20" height="10" as="geometry" />
        </mxCell>
        <mxCell id="TqLUojS1CVR_VBdu6LNA-110" value="path" style="text;html=1;align=center;verticalAlign=middle;whiteSpace=wrap;rounded=0;fontSize=7;" parent="1" vertex="1">
          <mxGeometry x="841" y="779" width="20" height="10" as="geometry" />
        </mxCell>
        <mxCell id="TqLUojS1CVR_VBdu6LNA-111" value="" style="endArrow=oval;html=1;rounded=0;endFill=1;" parent="1" edge="1">
          <mxGeometry width="50" height="50" relative="1" as="geometry">
            <mxPoint x="781" y="765" as="sourcePoint" />
            <mxPoint x="781" y="775" as="targetPoint" />
          </mxGeometry>
        </mxCell>
        <mxCell id="TqLUojS1CVR_VBdu6LNA-112" value="" style="endArrow=oval;html=1;rounded=0;endFill=0;" parent="1" edge="1">
          <mxGeometry width="50" height="50" relative="1" as="geometry">
            <mxPoint x="801" y="765" as="sourcePoint" />
            <mxPoint x="801" y="775" as="targetPoint" />
          </mxGeometry>
        </mxCell>
        <mxCell id="TqLUojS1CVR_VBdu6LNA-113" value="" style="endArrow=oval;html=1;rounded=0;endFill=0;" parent="1" edge="1">
          <mxGeometry width="50" height="50" relative="1" as="geometry">
            <mxPoint x="823" y="765" as="sourcePoint" />
            <mxPoint x="823" y="775" as="targetPoint" />
          </mxGeometry>
        </mxCell>
        <mxCell id="TqLUojS1CVR_VBdu6LNA-114" value="" style="endArrow=oval;html=1;rounded=0;endFill=0;" parent="1" edge="1">
          <mxGeometry width="50" height="50" relative="1" as="geometry">
            <mxPoint x="850" y="765" as="sourcePoint" />
            <mxPoint x="850" y="775" as="targetPoint" />
          </mxGeometry>
        </mxCell>
        <mxCell id="TqLUojS1CVR_VBdu6LNA-115" value="ID" style="text;html=1;align=center;verticalAlign=middle;whiteSpace=wrap;rounded=0;fontSize=7;" parent="1" vertex="1">
          <mxGeometry x="770.5" y="780" width="20" height="10" as="geometry" />
        </mxCell>
        <mxCell id="TqLUojS1CVR_VBdu6LNA-121" style="edgeStyle=orthogonalEdgeStyle;rounded=0;orthogonalLoop=1;jettySize=auto;html=1;exitX=0.5;exitY=1;exitDx=0;exitDy=0;endArrow=none;endFill=0;" parent="1" source="TqLUojS1CVR_VBdu6LNA-118" target="TqLUojS1CVR_VBdu6LNA-88" edge="1">
          <mxGeometry relative="1" as="geometry" />
        </mxCell>
        <mxCell id="TqLUojS1CVR_VBdu6LNA-118" value="RIC OLIO" style="rhombus;whiteSpace=wrap;html=1;" parent="1" vertex="1">
          <mxGeometry x="588" y="660" width="62" height="45" as="geometry" />
        </mxCell>
        <mxCell id="TqLUojS1CVR_VBdu6LNA-124" value="N - N" style="text;html=1;align=center;verticalAlign=middle;resizable=0;points=[];autosize=1;strokeColor=none;fillColor=none;" parent="1" vertex="1">
          <mxGeometry x="696" y="695" width="50" height="30" as="geometry" />
        </mxCell>
        <mxCell id="TqLUojS1CVR_VBdu6LNA-125" value="&lt;p style=&quot;line-height: 120%;&quot;&gt;N - N&lt;/p&gt;" style="text;html=1;align=center;verticalAlign=middle;resizable=0;points=[];autosize=1;strokeColor=none;fillColor=none;" parent="1" vertex="1">
          <mxGeometry x="615.5" y="683" width="50" height="50" as="geometry" />
        </mxCell>
        <mxCell id="TqLUojS1CVR_VBdu6LNA-126" value="N - N" style="text;html=1;align=center;verticalAlign=middle;resizable=0;points=[];autosize=1;strokeColor=none;fillColor=none;" parent="1" vertex="1">
          <mxGeometry x="820.5" y="585" width="50" height="30" as="geometry" />
        </mxCell>
        <mxCell id="TqLUojS1CVR_VBdu6LNA-128" value="RECENSIONE" style="rhombus;whiteSpace=wrap;html=1;" parent="1" vertex="1">
          <mxGeometry x="564.5" y="385.5" width="95.5" height="54.5" as="geometry" />
        </mxCell>
        <mxCell id="TqLUojS1CVR_VBdu6LNA-130" value="ORDINE" style="rhombus;whiteSpace=wrap;html=1;" parent="1" vertex="1">
          <mxGeometry x="779" y="385.5" width="80" height="60" as="geometry" />
        </mxCell>
        <mxCell id="TqLUojS1CVR_VBdu6LNA-132" value="" style="endArrow=oval;html=1;rounded=0;endFill=0;" parent="1" edge="1">
          <mxGeometry width="50" height="50" relative="1" as="geometry">
            <mxPoint x="570" y="408" as="sourcePoint" />
            <mxPoint x="560" y="400" as="targetPoint" />
          </mxGeometry>
        </mxCell>
        <mxCell id="TqLUojS1CVR_VBdu6LNA-133" value="" style="endArrow=oval;html=1;rounded=0;endFill=0;exitX=0.267;exitY=0.266;exitDx=0;exitDy=0;exitPerimeter=0;" parent="1" source="TqLUojS1CVR_VBdu6LNA-128" edge="1">
          <mxGeometry width="50" height="50" relative="1" as="geometry">
            <mxPoint x="590" y="395.5" as="sourcePoint" />
            <mxPoint x="570" y="380" as="targetPoint" />
          </mxGeometry>
        </mxCell>
        <mxCell id="TqLUojS1CVR_VBdu6LNA-134" value="" style="endArrow=oval;html=1;rounded=0;endFill=0;" parent="1" edge="1">
          <mxGeometry width="50" height="50" relative="1" as="geometry">
            <mxPoint x="655" y="408" as="sourcePoint" />
            <mxPoint x="665" y="398" as="targetPoint" />
          </mxGeometry>
        </mxCell>
        <mxCell id="TqLUojS1CVR_VBdu6LNA-135" value="&lt;font style=&quot;font-size: 8px;&quot;&gt;starts&lt;/font&gt;" style="text;html=1;align=center;verticalAlign=middle;resizable=0;points=[];autosize=1;strokeColor=none;fillColor=none;" parent="1" vertex="1">
          <mxGeometry x="540" y="356" width="40" height="30" as="geometry" />
        </mxCell>
        <mxCell id="TqLUojS1CVR_VBdu6LNA-137" value="&lt;span style=&quot;font-size: 8px;&quot;&gt;datetime&lt;/span&gt;" style="text;html=1;align=center;verticalAlign=middle;resizable=0;points=[];autosize=1;strokeColor=none;fillColor=none;" parent="1" vertex="1">
          <mxGeometry x="525" y="373" width="50" height="30" as="geometry" />
        </mxCell>
        <mxCell id="TqLUojS1CVR_VBdu6LNA-138" value="&lt;span style=&quot;font-size: 8px;&quot;&gt;text&lt;/span&gt;" style="text;html=1;align=center;verticalAlign=middle;resizable=0;points=[];autosize=1;strokeColor=none;fillColor=none;" parent="1" vertex="1">
          <mxGeometry x="660" y="379" width="40" height="30" as="geometry" />
        </mxCell>
        <mxCell id="TqLUojS1CVR_VBdu6LNA-139" value="&lt;span style=&quot;font-size: 8px;&quot;&gt;datetime&lt;/span&gt;" style="text;html=1;align=center;verticalAlign=middle;resizable=0;points=[];autosize=1;strokeColor=none;fillColor=none;" parent="1" vertex="1">
          <mxGeometry x="825" y="358" width="50" height="30" as="geometry" />
        </mxCell>
        <mxCell id="TqLUojS1CVR_VBdu6LNA-140" value="&lt;div style=&quot;text-align: center;&quot;&gt;&lt;span style=&quot;background-color: initial; font-size: 7px;&quot;&gt;total&lt;/span&gt;&lt;/div&gt;" style="text;whiteSpace=wrap;html=1;" parent="1" vertex="1">
          <mxGeometry x="859" y="378" width="20" height="20" as="geometry" />
        </mxCell>
        <mxCell id="TqLUojS1CVR_VBdu6LNA-142" value="&lt;span style=&quot;color: rgb(0, 0, 0); font-family: Helvetica; font-size: 7px; font-style: normal; font-variant-ligatures: normal; font-variant-caps: normal; font-weight: 400; letter-spacing: normal; orphans: 2; text-align: center; text-indent: 0px; text-transform: none; widows: 2; word-spacing: 0px; -webkit-text-stroke-width: 0px; white-space: normal; background-color: rgb(251, 251, 251); text-decoration-thickness: initial; text-decoration-style: initial; text-decoration-color: initial; float: none; display: inline !important;&quot;&gt;shipped(consegnato)&lt;/span&gt;" style="text;whiteSpace=wrap;html=1;fontSize=7;" parent="1" vertex="1">
          <mxGeometry x="885" y="395" width="85" height="20" as="geometry" />
        </mxCell>
        <mxCell id="TqLUojS1CVR_VBdu6LNA-143" value="&lt;div style=&quot;text-align: center;&quot;&gt;&lt;span style=&quot;background-color: initial; font-size: 7px;&quot;&gt;IVA&lt;/span&gt;&lt;/div&gt;" style="text;whiteSpace=wrap;html=1;" parent="1" vertex="1">
          <mxGeometry x="865" y="415" width="65" height="20" as="geometry" />
        </mxCell>
        <mxCell id="TqLUojS1CVR_VBdu6LNA-144" value="&lt;div style=&quot;text-align: center;&quot;&gt;&lt;span style=&quot;background-color: initial; font-size: 7px;&quot;&gt;address&lt;/span&gt;&lt;/div&gt;" style="text;whiteSpace=wrap;html=1;" parent="1" vertex="1">
          <mxGeometry x="746" y="418" width="20" height="20" as="geometry" />
        </mxCell>
        <mxCell id="TqLUojS1CVR_VBdu6LNA-145" value="&lt;span style=&quot;color: rgb(0, 0, 0); font-family: Helvetica; font-size: 7px; font-style: normal; font-variant-ligatures: normal; font-variant-caps: normal; font-weight: 400; letter-spacing: normal; orphans: 2; text-align: center; text-indent: 0px; text-transform: none; widows: 2; word-spacing: 0px; -webkit-text-stroke-width: 0px; white-space: normal; background-color: rgb(251, 251, 251); text-decoration-thickness: initial; text-decoration-style: initial; text-decoration-color: initial; display: inline !important; float: none;&quot;&gt;returned&lt;/span&gt;" style="text;whiteSpace=wrap;html=1;" parent="1" vertex="1">
          <mxGeometry x="839" y="438" width="61" height="20" as="geometry" />
        </mxCell>
        <mxCell id="TqLUojS1CVR_VBdu6LNA-146" value="&lt;span style=&quot;color: rgb(0, 0, 0); font-family: Helvetica; font-size: 7px; font-style: normal; font-variant-ligatures: normal; font-variant-caps: normal; font-weight: 400; letter-spacing: normal; orphans: 2; text-align: center; text-indent: 0px; text-transform: none; widows: 2; word-spacing: 0px; -webkit-text-stroke-width: 0px; white-space: normal; background-color: rgb(251, 251, 251); text-decoration-thickness: initial; text-decoration-style: initial; text-decoration-color: initial; display: inline !important; float: none;&quot;&gt;sent&lt;/span&gt;" style="text;whiteSpace=wrap;html=1;" parent="1" vertex="1">
          <mxGeometry x="779.5" y="438" width="46" height="20" as="geometry" />
        </mxCell>
        <mxCell id="TqLUojS1CVR_VBdu6LNA-148" value="" style="endArrow=oval;html=1;rounded=0;endFill=0;exitX=0.027;exitY=0.515;exitDx=0;exitDy=0;exitPerimeter=0;" parent="1" source="TqLUojS1CVR_VBdu6LNA-130" edge="1">
          <mxGeometry width="50" height="50" relative="1" as="geometry">
            <mxPoint x="772.75" y="423.83" as="sourcePoint" />
            <mxPoint x="770.25" y="426.176" as="targetPoint" />
          </mxGeometry>
        </mxCell>
        <mxCell id="TqLUojS1CVR_VBdu6LNA-149" value="" style="endArrow=oval;html=1;rounded=0;endFill=0;exitX=0.661;exitY=0.146;exitDx=0;exitDy=0;exitPerimeter=0;" parent="1" source="TqLUojS1CVR_VBdu6LNA-130" edge="1">
          <mxGeometry width="50" height="50" relative="1" as="geometry">
            <mxPoint x="829" y="398" as="sourcePoint" />
            <mxPoint x="839" y="382.91" as="targetPoint" />
          </mxGeometry>
        </mxCell>
        <mxCell id="TqLUojS1CVR_VBdu6LNA-150" value="" style="endArrow=oval;html=1;rounded=0;endFill=0;exitX=1;exitY=0.5;exitDx=0;exitDy=0;" parent="1" edge="1">
          <mxGeometry width="50" height="50" relative="1" as="geometry">
            <mxPoint x="858" y="416" as="sourcePoint" />
            <mxPoint x="880" y="411" as="targetPoint" />
          </mxGeometry>
        </mxCell>
        <mxCell id="TqLUojS1CVR_VBdu6LNA-151" value="" style="endArrow=oval;html=1;rounded=0;endFill=0;exitX=1.006;exitY=-0.079;exitDx=0;exitDy=0;exitPerimeter=0;" parent="1" edge="1">
          <mxGeometry width="50" height="50" relative="1" as="geometry">
            <mxPoint x="806" y="435.32" as="sourcePoint" />
            <mxPoint x="797.25" y="445.496" as="targetPoint" />
          </mxGeometry>
        </mxCell>
        <mxCell id="TqLUojS1CVR_VBdu6LNA-152" value="" style="endArrow=oval;html=1;rounded=0;endFill=0;exitX=0.633;exitY=0.883;exitDx=0;exitDy=0;exitPerimeter=0;entryX=0;entryY=0.5;entryDx=0;entryDy=0;" parent="1" source="TqLUojS1CVR_VBdu6LNA-130" target="TqLUojS1CVR_VBdu6LNA-145" edge="1">
          <mxGeometry width="50" height="50" relative="1" as="geometry">
            <mxPoint x="816" y="445.32" as="sourcePoint" />
            <mxPoint x="807.25" y="455.496" as="targetPoint" />
          </mxGeometry>
        </mxCell>
        <mxCell id="TqLUojS1CVR_VBdu6LNA-154" value="" style="endArrow=oval;html=1;rounded=0;endFill=0;exitX=1.006;exitY=-0.079;exitDx=0;exitDy=0;exitPerimeter=0;" parent="1" edge="1">
          <mxGeometry width="50" height="50" relative="1" as="geometry">
            <mxPoint x="845" y="425.32" as="sourcePoint" />
            <mxPoint x="860" y="430" as="targetPoint" />
          </mxGeometry>
        </mxCell>
        <mxCell id="TqLUojS1CVR_VBdu6LNA-157" value="" style="edgeStyle=orthogonalEdgeStyle;rounded=0;orthogonalLoop=1;jettySize=auto;html=1;exitX=1;exitY=0.5;exitDx=0;exitDy=0;entryX=0;entryY=0.5;entryDx=0;entryDy=0;endArrow=none;endFill=0;" parent="1" source="TqLUojS1CVR_VBdu6LNA-88" target="TqLUojS1CVR_VBdu6LNA-156" edge="1">
          <mxGeometry relative="1" as="geometry">
            <mxPoint x="671" y="745" as="sourcePoint" />
            <mxPoint x="775" y="745" as="targetPoint" />
          </mxGeometry>
        </mxCell>
        <mxCell id="TqLUojS1CVR_VBdu6LNA-156" value="RIC IMG" style="rhombus;whiteSpace=wrap;html=1;" parent="1" vertex="1">
          <mxGeometry x="691.5" y="720" width="59" height="52.5" as="geometry" />
        </mxCell>
        <mxCell id="TqLUojS1CVR_VBdu6LNA-159" value="PROD IMG" style="rhombus;whiteSpace=wrap;html=1;" parent="1" vertex="1">
          <mxGeometry x="795.5" y="650" width="69.5" height="45" as="geometry" />
        </mxCell>
        <mxCell id="TqLUojS1CVR_VBdu6LNA-162" value="" style="endArrow=none;html=1;rounded=0;entryX=0.5;entryY=1;entryDx=0;entryDy=0;" parent="1" target="TqLUojS1CVR_VBdu6LNA-128" edge="1">
          <mxGeometry width="50" height="50" relative="1" as="geometry">
            <mxPoint x="612" y="540" as="sourcePoint" />
            <mxPoint x="644" y="475" as="targetPoint" />
          </mxGeometry>
        </mxCell>
        <mxCell id="TqLUojS1CVR_VBdu6LNA-163" value="" style="endArrow=none;html=1;rounded=0;entryX=-0.007;entryY=0.365;entryDx=0;entryDy=0;entryPerimeter=0;" parent="1" target="TqLUojS1CVR_VBdu6LNA-52" edge="1">
          <mxGeometry width="50" height="50" relative="1" as="geometry">
            <mxPoint x="610" y="540" as="sourcePoint" />
            <mxPoint x="635.5" y="544.73" as="targetPoint" />
          </mxGeometry>
        </mxCell>
        <mxCell id="TqLUojS1CVR_VBdu6LNA-164" value="" style="endArrow=none;html=1;rounded=0;" parent="1" edge="1">
          <mxGeometry width="50" height="50" relative="1" as="geometry">
            <mxPoint x="735.5" y="540" as="sourcePoint" />
            <mxPoint x="820" y="540" as="targetPoint" />
          </mxGeometry>
        </mxCell>
        <mxCell id="TqLUojS1CVR_VBdu6LNA-165" value="" style="endArrow=none;html=1;rounded=0;entryX=0.5;entryY=1;entryDx=0;entryDy=0;" parent="1" target="TqLUojS1CVR_VBdu6LNA-130" edge="1">
          <mxGeometry width="50" height="50" relative="1" as="geometry">
            <mxPoint x="819" y="540" as="sourcePoint" />
            <mxPoint x="870.5" y="490" as="targetPoint" />
          </mxGeometry>
        </mxCell>
      </root>
    </mxGraphModel>
  </diagram>
</mxfile>
